<?xml version="1.0" encoding="UTF-8" standalone="no"?>
<!-- Created with Inkscape (http://www.inkscape.org/) -->

<svg
   xmlns:dc="http://purl.org/dc/elements/1.1/"
   xmlns:cc="http://creativecommons.org/ns#"
   xmlns:rdf="http://www.w3.org/1999/02/22-rdf-syntax-ns#"
   xmlns:svg="http://www.w3.org/2000/svg"
   xmlns="http://www.w3.org/2000/svg"
   xmlns:sodipodi="http://sodipodi.sourceforge.net/DTD/sodipodi-0.dtd"
   xmlns:inkscape="http://www.inkscape.org/namespaces/inkscape"
   width="744.09448819"
   height="1052.3622047"
   id="svg2"
   version="1.1"
   inkscape:version="0.48.1 r9760"
   sodipodi:docname="omino.svg">
  <defs
     id="defs4" />
  <sodipodi:namedview
     id="base"
     pagecolor="#ffffff"
     bordercolor="#666666"
     borderopacity="1.0"
     inkscape:pageopacity="0.0"
     inkscape:pageshadow="2"
     inkscape:zoom="1.4"
     inkscape:cx="260.71428"
     inkscape:cy="628.57143"
     inkscape:document-units="px"
     inkscape:current-layer="layer1"
     showgrid="false"
     inkscape:window-width="1280"
     inkscape:window-height="977"
     inkscape:window-x="0"
     inkscape:window-y="0"
     inkscape:window-maximized="1" />
  <metadata
     id="metadata7">
    <rdf:RDF>
      <cc:Work
         rdf:about="">
        <dc:format>image/svg+xml</dc:format>
        <dc:type
           rdf:resource="http://purl.org/dc/dcmitype/StillImage" />
        <dc:title />
      </cc:Work>
    </rdf:RDF>
  </metadata>
  <g
     inkscape:label="Layer 1"
     inkscape:groupmode="layer"
     id="layer1">
    <path
       sodipodi:type="arc"
       style="fill:#000000;fill-opacity:1;stroke-width:3;stroke-miterlimit:4;stroke-dasharray:none"
       id="path3885"
       sodipodi:cx="210.35715"
       sodipodi:cy="538.79077"
       sodipodi:rx="70.35714"
       sodipodi:ry="10"
       d="m 280.71429,538.79077 a 70.35714,10 0 1 1 -140.71428,0 70.35714,10 0 1 1 140.71428,0 z"
       transform="translate(-120.71429,-107.14286)" />
    <path
       sodipodi:type="arc"
       style="fill:#d11a00;fill-rule:evenodd;stroke:#000000;stroke-width:3.60000000000000009;stroke-linecap:butt;stroke-linejoin:miter;stroke-opacity:1;stroke-miterlimit:4;stroke-dasharray:none;fill-opacity:1"
       id="path2985"
       sodipodi:cx="152.85715"
       sodipodi:cy="342.36218"
       sodipodi:rx="70"
       sodipodi:ry="92.85714"
       d="m 222.85715,342.36218 a 70,92.85714 0 1 1 -140.000003,0 70,92.85714 0 1 1 140.000003,0 z" />
    <path
       transform="matrix(0.29566144,0,0,0.22244713,76.948896,221.95948)"
       sodipodi:type="arc"
       style="fill:#ffffff;fill-rule:evenodd;stroke:#000000;stroke-width:11.69797011;stroke-linecap:butt;stroke-linejoin:miter;stroke-miterlimit:4;stroke-opacity:1;stroke-dasharray:none"
       id="path2985-2"
       sodipodi:cx="152.85715"
       sodipodi:cy="342.36218"
       sodipodi:rx="70"
       sodipodi:ry="92.85714"
       d="m 222.85715,342.36218 a 70,92.85714 0 1 1 -140.000003,0 70,92.85714 0 1 1 140.000003,0 z" />
    <path
       transform="matrix(0.29566144,0,0,0.22244713,121.94889,218.34755)"
       sodipodi:type="arc"
       style="fill:#ffffff;fill-rule:evenodd;stroke:#000000;stroke-width:11.69797011;stroke-linecap:butt;stroke-linejoin:miter;stroke-miterlimit:4;stroke-opacity:1;stroke-dasharray:none"
       id="path2985-2-0-2"
       sodipodi:cx="152.85715"
       sodipodi:cy="342.36218"
       sodipodi:rx="70"
       sodipodi:ry="92.85714"
       d="m 222.85715,342.36218 a 70,92.85714 0 1 1 -140.000003,0 70,92.85714 0 1 1 140.000003,0 z" />
    <path
       transform="matrix(0.08634034,0,0,0.06302199,155.73083,273.84885)"
       sodipodi:type="arc"
       style="fill:#ff6600;fill-rule:evenodd;stroke:#000000;stroke-width:40.66945205999999757;stroke-linecap:butt;stroke-linejoin:miter;stroke-miterlimit:4;stroke-opacity:1;stroke-dasharray:none"
       id="path2985-2-0"
       sodipodi:cx="152.85715"
       sodipodi:cy="342.36218"
       sodipodi:rx="70"
       sodipodi:ry="92.85714"
       d="m 222.85715,342.36218 a 70,92.85714 0 1 1 -140.000003,0 70,92.85714 0 1 1 140.000003,0 z" />
    <path
       transform="matrix(0.08634034,0,0,0.06302199,108.94512,276.50012)"
       sodipodi:type="arc"
       style="fill:#ff6600;fill-rule:evenodd;stroke:#000000;stroke-width:40.66945205999999757;stroke-linecap:butt;stroke-linejoin:miter;stroke-miterlimit:4;stroke-opacity:1;stroke-dasharray:none"
       id="path2985-2-0-3"
       sodipodi:cx="152.85715"
       sodipodi:cy="342.36218"
       sodipodi:rx="70"
       sodipodi:ry="92.85714"
       d="m 222.85715,342.36218 a 70,92.85714 0 1 1 -140.000003,0 70,92.85714 0 1 1 140.000003,0 z" />
    <path
       transform="matrix(0.3640634,0,0,0.06302199,108.79092,372.21441)"
       sodipodi:type="arc"
       style="fill:#ffaaaa;fill-rule:evenodd;stroke:#000000;stroke-width:19.80554001000000142;stroke-linecap:butt;stroke-linejoin:miter;stroke-miterlimit:4;stroke-opacity:1;stroke-dasharray:none"
       id="path2985-2-0-7"
       sodipodi:cx="152.85715"
       sodipodi:cy="342.36218"
       sodipodi:rx="70"
       sodipodi:ry="92.85714"
       d="m 222.85715,342.36218 a 70,92.85714 0 1 1 -140.000003,0 70,92.85714 0 1 1 140.000003,0 z" />
    <path
       transform="matrix(0.1567494,0,0,0.10840728,129.61116,304.53334)"
       sodipodi:type="arc"
       style="fill:#ff6600;fill-rule:evenodd;stroke:#000000;stroke-width:23.01383987999999903;stroke-linecap:butt;stroke-linejoin:miter;stroke-miterlimit:4;stroke-opacity:1;stroke-dasharray:none"
       id="path2985-2-0-5"
       sodipodi:cx="152.85715"
       sodipodi:cy="342.36218"
       sodipodi:rx="70"
       sodipodi:ry="92.85714"
       d="m 222.85715,342.36218 a 70,92.85714 0 1 1 -140.000003,0 70,92.85714 0 1 1 140.000003,0 z" />
    <text
       xml:space="preserve"
       style="font-size:40px;font-style:normal;font-variant:normal;font-weight:bold;font-stretch:normal;font-family:WenQuanYi Micro Hei Mono;-inkscape-font-specification:WenQuanYi Micro Hei Mono Bold"
       x="37.857143"
       y="326.64789"
       id="text2990"><tspan
         sodipodi:role="line"
         id="tspan2992"
         x="37.857143"
         y="326.64789">Op<tspan
   style="fill:#ff6600"
   id="tspan2998">en</tspan></tspan><tspan
         sodipodi:role="line"
         x="37.857143"
         y="376.64789"
         id="tspan2994">Xn<tspan
   style="fill:#ff6600"
   id="tspan2996">a</tspan></tspan></text>
  </g>
</svg>
